PathFileType	4	(X/Y/Z)	D:\TRACE\spotREDO_2-26-24\spot_justBody_Motion_1_2-platform.trc
DataRate	CameraRate	NumFrames	NumMarkers	Units	OrigDataRate	OrigDataStartFrame	OrigNumFrames
100.00	100.00	      66	5	mm	100.00	3501	      7000
Frame#	Time	Left_Front			Right_Front			Left_Aft			Right_Aft			Post			
		X1	Y1	Z1	X2	Y2	Z2	X3	Y3	Z3	X4	Y4	Z4	X5	Y5	Z5	

3501	35.000	-688.99945	-29.34638	-581.50421	725.47772	-16.69623	-497.19629	-760.72583	30.85712	636.13635	809.64990	38.31652	639.20380	20.38985	579.98523	-1014.38074	
3502	35.010	-690.11493	-29.50344	-581.55438	724.64160	-16.84719	-497.07370	-761.64709	30.84144	636.20264	808.50946	37.68701	638.92517	19.49541	580.05402	-1014.44012	
3503	35.020	-690.86353	-29.46666	-581.44208	723.99579	-16.91660	-496.96915	-762.40796	30.43437	635.97498	807.78796	38.22054	639.26636	18.74900	580.10724	-1014.18695	
3504	35.030	-691.70776	-29.34295	-581.41669	722.71539	-16.89601	-497.11496	-763.38367	30.57302	636.17419	806.74329	38.12629	639.37384	18.01219	580.22577	-1014.12341	
3505	35.040	-692.86182	-29.05025	-581.44342	721.75336	-16.60390	-497.11612	-764.40259	30.51734	636.16803	806.22095	38.02934	639.34930	16.74314	580.51807	-1014.14514	
3506	35.050	-693.85333	-28.85046	-581.38080	720.94757	-16.54159	-496.99530	-765.28149	30.43026	636.25635	804.84814	37.87451	639.26819	15.94033	580.77936	-1014.12415	
3507	35.060	-694.82507	-28.77055	-581.46857	719.76874	-16.51657	-497.01425	-766.45422	30.32661	636.25287	803.95905	37.45075	638.98132	14.76421	580.90979	-1013.92670	
3508	35.070	-695.65631	-28.69553	-581.45941	719.04419	-16.38814	-496.99139	-767.33325	30.20795	636.40826	802.88525	37.69740	639.34399	13.64861	581.13110	-1013.59418	
3509	35.080	-696.81958	-28.75834	-581.49353	717.99634	-16.42550	-497.05695	-768.19293	29.98717	636.30939	801.84070	37.49701	639.32440	12.71266	581.28778	-1013.38794	
3510	35.090	-697.59802	-28.65177	-581.35657	717.00031	-16.42809	-496.98254	-769.01331	29.86152	636.43835	801.31274	37.46366	639.36841	12.05704	581.43939	-1012.91302	
3511	35.100	-698.52887	-28.55294	-581.35651	715.92590	-16.17227	-496.94708	-770.18292	29.49058	636.45599	800.41956	37.58966	639.62244	10.99107	581.79620	-1012.83423	
3512	35.110	-699.63068	-28.19580	-581.29071	715.05786	-16.17126	-496.91754	-770.87891	29.44798	636.51135	799.09863	36.93140	639.23999	10.18397	581.96594	-1012.66241	
3513	35.120	-700.66327	-28.01076	-581.40179	714.19781	-15.94877	-497.06073	-771.88519	29.35523	636.53558	798.29468	36.62153	639.21436	9.02170	582.16833	-1012.53290	
3514	35.130	-701.62970	-27.91606	-581.42505	712.84802	-15.76427	-496.96243	-773.09479	29.11997	636.66895	797.48328	36.48670	639.42371	8.32382	582.54950	-1012.08740	
3515	35.140	-702.53723	-27.77551	-581.30273	712.11420	-15.62282	-496.81680	-773.93695	29.06042	636.65186	796.18671	36.42175	639.35828	7.36003	582.71722	-1012.08160	
3516	35.150	-703.61920	-27.73553	-581.22089	711.37799	-15.48270	-496.79431	-775.03394	29.02851	636.50513	795.08521	36.37001	639.67468	6.21569	583.01495	-1012.19904	
3517	35.160	-704.31732	-27.61104	-581.24310	710.24713	-15.29174	-496.85028	-776.08990	29.31106	636.60205	794.38702	35.77343	639.53613	5.35380	583.13660	-1012.19568	
3518	35.170	-705.40741	-27.29162	-581.19379	709.23041	-15.18252	-496.78159	-777.04993	28.46761	636.68903	793.47717	35.60796	639.33588	4.39150	583.39484	-1011.93933	
3519	35.180	-706.52106	-26.93394	-581.06647	708.14734	-15.14820	-496.64130	-777.94983	28.72166	636.58630	792.43512	35.53904	639.60016	3.36035	583.82642	-1011.73132	
3520	35.190	-707.29199	-26.81313	-581.04712	707.33099	-15.01609	-496.73721	-779.17090	28.22845	636.76141	791.68634	35.50149	639.84845	2.40018	584.18030	-1011.65997	
3521	35.200	-708.30377	-26.63420	-580.98676	706.45093	-14.90324	-496.68188	-779.96045	28.23154	636.80176	790.19147	34.91291	639.71826	1.35320	584.53925	-1011.15277	
3522	35.210	-709.18951	-26.48647	-580.85822	705.41296	-14.56862	-496.44513	-780.80695	28.01860	636.81085	789.35797	34.79988	639.60284	0.50252	584.84949	-1010.78357	
3523	35.220	-710.41284	-26.22896	-580.91644	704.54419	-14.32714	-496.59882	-781.84882	27.79302	637.05035	788.79498	34.81799	639.78149	-0.52406	585.24463	-1010.48993	
3524	35.230	-711.16559	-25.93597	-580.86597	703.29553	-14.13771	-496.50082	-782.85706	27.67416	636.95178	787.74951	34.68719	640.02802	-1.52394	585.80768	-1009.86670	
3525	35.240	-711.94226	-25.74775	-580.83960	702.50964	-14.01856	-496.42999	-783.51147	27.56237	637.25616	786.58929	34.08708	639.87793	-2.43794	586.24219	-1009.75098	
3526	35.250	-713.20367	-25.46747	-580.67151	701.62695	-13.96315	-496.34561	-784.68530	26.87123	637.18939	785.43744	33.91784	640.09314	-3.54728	586.50134	-1009.42566	
3527	35.260	-714.22137	-25.32555	-580.58417	700.43231	-13.80256	-496.27768	-785.38470	26.61478	637.37805	785.06500	33.95255	640.16809	-4.48404	586.88666	-1009.07874	
3528	35.270	-714.94891	-25.17065	-580.64746	699.56555	-13.54272	-496.23624	-786.39130	26.27218	637.50500	784.01196	33.86750	640.28546	-5.16757	587.36871	-1008.99695	
3529	35.280	-715.83881	-24.80912	-580.61945	698.73163	-13.38281	-496.20618	-787.31274	26.11475	637.51880	782.78680	32.81477	640.16565	-6.24764	587.89343	-1008.75781	
3530	35.290	-716.82794	-24.45615	-580.62091	697.74487	-12.95965	-496.17358	-788.25330	25.73033	637.55267	781.80585	33.08508	640.72382	-7.15560	588.20544	-1008.51160	
3531	35.300	-717.92560	-24.18550	-580.53925	696.85791	-12.75979	-496.18008	-789.10712	25.46620	637.51202	781.13818	32.91690	640.77014	-8.09987	588.60468	-1008.32666	
3532	35.310	-718.69580	-23.92538	-580.58234	695.94720	-12.65457	-495.88422	-790.23126	25.15885	637.59143	780.01007	32.71397	640.77917	-9.01974	589.09747	-1008.07910	
3533	35.320	-719.76068	-23.74806	-580.54102	695.03107	-12.21400	-495.98099	-791.10248	24.95550	637.80896	779.03674	32.15883	640.76172	-9.82531	589.80267	-1007.44226	
3534	35.330	-720.52032	-23.46985	-580.32349	693.98260	-11.84390	-495.98398	-792.21667	24.65865	637.82269	778.14130	31.89262	641.03308	-10.64682	590.10767	-1007.14850	
3535	35.340	-721.48016	-23.04357	-580.35950	693.27960	-11.75005	-495.69638	-792.88446	24.34100	637.90875	777.40240	31.64349	641.12103	-11.66792	590.63715	-1006.88025	
3536	35.350	-722.41437	-22.73872	-580.34052	692.52014	-11.33757	-495.83105	-793.92651	23.93076	637.95099	776.48566	31.19310	641.08746	-12.73129	591.41650	-1006.31781	
3537	35.360	-723.26337	-22.37322	-580.25842	691.36902	-11.12045	-495.71973	-794.76642	23.66477	638.00848	775.42371	30.84690	641.22388	-13.29598	591.86926	-1005.72937	
3538	35.370	-723.92041	-22.07881	-580.03003	690.49579	-11.10478	-495.56641	-795.55109	23.43933	638.21088	774.88025	30.58688	641.44177	-14.50774	592.29663	-1005.08350	
3539	35.380	-725.06451	-21.85482	-579.97223	689.79456	-10.73737	-495.63516	-796.42596	23.14998	638.25537	773.98175	30.35276	641.53986	-15.36422	592.81396	-1004.84546	
3540	35.390	-725.94360	-21.50961	-579.98138	688.78217	-10.43473	-495.44614	-797.30573	22.82774	638.43689	772.89178	29.93310	641.46191	-16.30637	593.50488	-1004.42853	
3541	35.400	-726.82965	-21.07557	-579.80237	687.92993	-10.39870	-495.28653	-798.12909	22.54167	638.57550	772.19537	29.66606	641.61108	-17.18187	593.93964	-1004.12146	
3542	35.410	-727.56738	-20.96958	-579.78809	687.18378	-9.99842	-495.23291	-799.11066	22.21607	638.61456	771.28442	29.31924	641.78613	-17.98001	594.35345	-1003.84943	
3543	35.420	-728.51587	-20.60929	-579.68365	686.21075	-9.76188	-495.09671	-800.00323	21.86189	638.60089	770.59387	29.02363	641.89825	-18.70336	594.97827	-1003.46643	
3544	35.430	-729.06018	-20.31394	-579.65198	685.55908	-9.47406	-495.01730	-800.69904	21.51486	638.76691	769.55414	28.40286	641.88324	-19.33625	595.55621	-1003.11230	
3545	35.440	-730.07178	-19.82457	-579.42346	684.73340	-9.12029	-495.03033	-801.37811	21.17195	638.88428	768.60681	28.16139	642.05725	-20.25211	596.19171	-1002.79578	
3546	35.450	-730.92462	-19.33862	-579.35394	683.80957	-8.63841	-495.04102	-802.25531	20.68116	638.93311	767.86346	27.77135	642.14508	-21.11354	596.89276	-1002.53015	
3547	35.460	-731.37585	-19.06945	-579.33588	683.15247	-8.41760	-494.84375	-802.89349	20.32643	639.18701	767.55725	27.59255	642.26605	-21.89125	597.54260	-1001.85083	
3548	35.470	-732.18976	-18.78183	-579.19989	682.53351	-8.07216	-494.81516	-803.72852	19.90876	639.43091	766.32855	27.03935	642.37329	-22.46047	598.01715	-1001.43774	
3549	35.480	-733.14685	-18.52805	-579.20868	681.40918	-7.69917	-494.67148	-804.56458	19.58218	639.41412	765.80023	26.70338	642.47485	-23.25154	598.66449	-1000.94965	
3550	35.490	-733.90417	-17.95179	-579.09369	680.83887	-7.51551	-494.54251	-805.32666	19.26136	639.48541	764.91211	26.27800	642.55078	-24.28910	599.23865	-1000.26733	
3551	35.500	-734.65503	-17.59238	-578.97766	680.12531	-7.14399	-494.54285	-806.04150	18.78250	639.57159	764.20227	26.01238	642.74854	-24.89384	599.74786	-999.69513	
3552	35.510	-735.44171	-17.32812	-578.94159	679.40985	-6.82780	-494.39041	-806.65924	18.43008	639.69519	763.25250	25.44920	642.84930	-25.76156	600.53003	-998.90314	
3553	35.520	-736.00513	-16.96161	-578.92590	678.48590	-6.54427	-494.42047	-807.13483	18.20412	639.84021	762.85358	25.15237	642.92773	-26.50373	601.31323	-998.58270	
3554	35.530	-736.77344	-16.56672	-578.71295	678.01721	-6.18161	-494.26987	-808.06903	17.57224	639.84082	762.29095	24.47462	642.79596	-27.24160	601.85535	-998.23071	
3555	35.540	-737.33008	-16.12728	-578.72577	677.33893	-5.77948	-494.20981	-808.68854	17.28356	640.05792	761.59082	24.03077	642.95789	-27.38762	602.42358	-997.33185	
3556	35.550	-737.91431	-15.73732	-578.54248	676.67102	-5.60716	-493.96954	-809.50861	16.87123	640.20581	761.10114	23.37808	643.01794	-28.22058	603.23035	-997.26160	
3557	35.560	-738.75043	-15.30553	-578.45428	676.05017	-5.14162	-493.96613	-809.88281	16.54429	640.42145	760.45959	22.88913	643.08771	-28.91389	603.72632	-997.16327	
3558	35.570	-739.30438	-15.04121	-578.43915	675.34717	-4.63694	-493.99905	-810.69275	15.93953	640.51166	759.76892	22.79287	643.25549	-29.79803	604.54413	-996.52710	
3559	35.580	-740.03870	-14.63720	-578.36084	674.83038	-4.50423	-493.77927	-811.19641	15.41021	640.68341	759.02124	22.53416	643.43243	-30.37629	605.25494	-996.05896	
3560	35.590	-740.69165	-14.06132	-578.15723	674.30231	-4.19742	-493.57376	-811.64160	15.06476	640.77826	758.35736	21.88562	643.40839	-30.80108	605.85400	-995.62213	
3561	35.600	-740.98346	-13.73479	-578.02728	673.75641	-3.78955	-493.68234	-812.43958	14.70638	640.72766	757.91974	21.73691	643.72485	-31.53972	606.52142	-994.81885	
3562	35.610	-741.58606	-13.34313	-578.01642	673.09839	-3.39648	-493.46646	-812.87415	14.40963	640.82776	757.48737	21.35509	643.94897	-31.98178	607.15973	-994.35126	
3563	35.620	-742.12372	-13.05576	-577.94800	672.65369	-3.21996	-493.45267	-813.29822	13.95854	640.88971	756.90906	21.13654	644.04077	-32.40274	607.78345	-993.80994	
3564	35.630	-742.71539	-12.68897	-577.71295	672.13287	-2.90437	-493.39551	-813.98535	13.54824	641.09613	755.94379	20.46904	644.09198	-33.16341	608.58832	-993.14447	
3565	35.640	-743.24811	-12.33381	-577.87646	671.48163	-2.56025	-493.12903	-814.42712	13.26611	641.19427	755.66357	20.17267	644.24078	-33.44581	609.34729	-992.68280	
3566	35.650	-743.69995	-11.82970	-577.70605	671.06598	-2.16675	-493.12860	-814.91913	12.86330	641.34174	755.40308	19.82669	644.42889	-33.90922	609.88904	-992.09088	
